<svg width="20" height="21" viewBox="0 0 20 21" fill="none" xmlns="http://www.w3.org/2000/svg">
<path fill-rule="evenodd" clip-rule="evenodd" d="M18.2781 6.09554L17.6557 5.01545C17.1291 4.10153 15.9621 3.78624 15.047 4.31064V4.31064C14.6113 4.56727 14.0915 4.64008 13.6021 4.51301C13.1128 4.38594 12.694 4.06944 12.4383 3.6333C12.2737 3.35607 12.1853 3.04032 12.182 2.71796V2.71796C12.1968 2.20115 12.0018 1.70033 11.6415 1.32959C11.2811 0.958861 10.786 0.749787 10.2689 0.75H9.01494C8.5084 0.749994 8.02275 0.951838 7.66544 1.31087C7.30812 1.6699 7.10861 2.15652 7.11105 2.66304V2.66304C7.09603 3.70885 6.24392 4.54873 5.198 4.54863C4.87565 4.54528 4.55989 4.45687 4.28267 4.29233V4.29233C3.3675 3.76794 2.20055 4.08322 1.67397 4.99714L1.00578 6.09554C0.479846 7.00832 0.790836 8.17453 1.70143 8.70423V8.70423C2.29334 9.04596 2.65797 9.67751 2.65797 10.361C2.65797 11.0445 2.29334 11.676 1.70143 12.0177V12.0177C0.791992 12.5439 0.480663 13.7073 1.00578 14.6173V14.6173L1.63736 15.7065C1.88408 16.1517 2.29804 16.4802 2.78763 16.6194C3.27722 16.7585 3.80208 16.6968 4.24606 16.4479V16.4479C4.68252 16.1933 5.20262 16.1235 5.69078 16.2541C6.17893 16.3848 6.59467 16.705 6.8456 17.1436C7.01013 17.4208 7.09854 17.7366 7.10189 18.0589V18.0589C7.10189 19.1155 7.95839 19.972 9.01494 19.972H10.2689C11.3219 19.972 12.1769 19.121 12.182 18.0681V18.0681C12.1795 17.56 12.3803 17.0719 12.7396 16.7126C13.0989 16.3534 13.5869 16.1526 14.095 16.155C14.4166 16.1636 14.7311 16.2517 15.0104 16.4113V16.4113C15.9231 16.9373 17.0894 16.6263 17.6191 15.7157V15.7157L18.2781 14.6173C18.5332 14.1794 18.6032 13.6579 18.4726 13.1683C18.3421 12.6787 18.0217 12.2613 17.5824 12.0086V12.0086C17.1432 11.7559 16.8228 11.3385 16.6922 10.8489C16.5617 10.3592 16.6317 9.83774 16.8868 9.39989C17.0527 9.11026 17.2928 8.87012 17.5824 8.70423V8.70423C18.4876 8.17482 18.7978 7.01542 18.2781 6.10469V6.10469V6.09554Z" stroke="#6941C6" stroke-width="1.5" stroke-linecap="round" stroke-linejoin="round"/>
<circle cx="9.6469" cy="10.3608" r="2.63616" stroke="#6941C6" stroke-width="1.5" stroke-linecap="round" stroke-linejoin="round"/>
</svg>
