<svg width="274" height="254" viewBox="0 0 274 254" fill="none" xmlns="http://www.w3.org/2000/svg">
<path d="M265.818 253.714C270.227 253.714 273.824 250.191 273.894 245.795C274.23 223.885 276 191.558 234.613 182.621C201.117 175.385 220.98 116.037 130.771 119.87C66.0195 122.622 83.2176 177.042 32.8731 181.571C-0.628625 184.588 -0.92044 226.833 0.367355 246.187C0.646483 250.419 4.17365 253.708 8.43035 253.708H265.818V253.714Z" fill="#DDDDEC"/>
<path opacity="0.55" d="M234.613 182.615C201.117 175.379 220.98 116.031 130.771 119.864C115.368 120.522 104.609 124.102 96.4697 129.232C99.2103 128.871 102.122 128.618 105.224 128.492C195.427 124.659 175.571 184.006 209.066 191.242C250.016 200.085 248.721 231.817 248.36 253.708H265.818C270.227 253.708 273.824 250.185 273.894 245.789C274.23 223.879 276 191.558 234.613 182.615Z" fill="#EAEBF2"/>
<path d="M42.8265 239.122C42.8265 239.122 41.3928 237.782 42.3571 232.709C43.3213 227.636 45.7701 222.76 44.5647 217.257C43.3657 211.748 33.9515 197.871 33.9261 196.947C33.8944 196.024 31.0207 213.095 35.8864 219.825C40.7521 226.548 41.3357 228.882 41.12 232.418C40.9043 235.954 41.1708 238.806 41.7037 239.628L42.8265 239.122Z" fill="#D6BBFB"/>
<path d="M41.9317 228.921C41.3671 231.185 41.0245 236.859 41.9253 238.219C42.0078 238.345 42.1283 238.276 42.2806 238.041C42.0078 237.105 41.8238 235.461 42.344 232.716C43.3083 227.643 45.757 222.767 44.5517 217.264C43.3527 211.755 33.9385 197.878 33.9131 196.954C33.9131 196.954 35.3341 208.523 40.1047 216.479C43.5303 222.172 42.4963 226.656 41.9317 228.921Z" fill="#9E77ED"/>
<path d="M44.5399 238.775C44.5399 238.775 41.7739 231.893 46.462 225.935C51.1501 219.977 58.6422 212.324 58.7881 209.294C58.7881 209.294 60.7166 223.683 54.6138 227.757C48.5174 231.83 44.2417 232.482 45.2948 238.75L44.5399 238.775Z" fill="#D6BBFB"/>
<path d="M51.1241 224.866C44.3235 229.799 43.7652 235.485 44.8247 238.123C44.9071 238.325 45.0594 238.452 45.2687 238.521C44.3552 232.475 48.5992 231.785 54.6195 227.763C60.7159 223.689 58.7938 209.3 58.7938 209.3C58.7938 209.3 57.9183 219.926 51.1241 224.866Z" fill="#9E77ED"/>
<path d="M39.9908 238.927C39.9908 238.927 40.8789 235.284 40.4032 231.35C39.9337 227.416 35.8102 225.202 31.9595 221.046C29.9803 218.908 29.3903 207.606 30.621 206.556C30.621 206.556 23.8204 214.772 24.8735 220.787C25.9202 226.802 37.0156 230.711 38.0433 233.62C39.071 236.53 38.9821 238.965 38.9821 238.965L39.9908 238.927Z" fill="#D6BBFB"/>
<path d="M28.3245 209.786C26.0788 215.852 28.3816 223.202 35.8483 227.768C41.342 231.127 39.5911 238.116 39.5911 238.116L40.4919 235.358C40.5744 234.169 40.5807 232.778 40.4095 231.348C39.94 227.414 35.8165 225.2 31.9658 221.045C30.0564 218.983 29.441 208.395 30.5004 206.706C30.1896 207.098 29.3078 208.237 28.3245 209.786Z" fill="#9E77ED"/>
<path d="M30.5 206.708C30.5762 206.613 30.6207 206.556 30.6207 206.556C30.5826 206.594 30.5381 206.645 30.5 206.708Z" fill="#9E77ED"/>
<path d="M45.9609 238.471C45.9609 238.471 47.5532 232.576 51.4991 231.779C55.4386 230.988 59.9681 225.176 60.2092 224.037C60.2092 224.043 59.5431 234.992 45.9609 238.471Z" fill="#D6BBFB"/>
<path d="M51.2707 233.734C48.8537 234.936 47.8513 236.555 47.4961 238.029C59.5874 234.151 60.2091 224.044 60.2091 224.044C60.1584 224.272 59.9427 224.683 59.5938 225.195C58.4075 227.27 55.5401 231.609 51.2707 233.734Z" fill="#9E77ED"/>
<path d="M54.4924 236.302H33.875L36.3237 251.653C36.5077 252.816 37.5164 253.677 38.6963 253.677H49.6648C50.8447 253.677 51.8534 252.823 52.0374 251.653L54.4924 236.302Z" fill="#FEC84B"/>
<path d="M54.0864 238.844L54.4924 236.302H33.875L34.281 238.844H54.0864Z" fill="#FDB022"/>
<path d="M49.4932 236.302L47.0445 251.653C46.8605 252.816 45.8518 253.677 44.6719 253.677H49.6645C50.8444 253.677 51.8531 252.823 52.037 251.653L54.4858 236.302H49.4932Z" fill="#FDB022"/>
<path d="M231.974 251.634H202.304L206.84 240.666V240.66L208.667 236.232L209.168 235.018L209.986 233.044L210.151 232.64L211.978 228.212L212.314 227.409L215.55 219.578C216.133 218.168 218.138 218.168 218.722 219.578L221.957 227.409L222.293 228.212L224.12 232.64L224.285 233.044L225.103 235.018L225.605 236.232L227.432 240.66V240.666L231.974 251.634Z" fill="#FEC84B"/>
<path opacity="0.29" d="M204.244 246.934L202.297 251.633H231.973L230.032 246.934H204.244Z" fill="#FDB022"/>
<path d="M233.909 248.825H199.925V253.613H233.909V248.825Z" fill="#B692F6"/>
<path d="M233.908 248.825H226.568V253.613H233.908V248.825Z" fill="#9E77ED"/>
<path opacity="0.29" d="M230.806 248.825H226.607L223.238 240.672V240.666L221.411 236.238L220.91 235.024L220.092 233.05L219.927 232.645L218.1 228.218L217.763 227.415L215.042 220.824L215.55 219.584C216.133 218.174 218.138 218.174 218.721 219.584L221.957 227.415L222.293 228.218L224.12 232.645L224.285 233.05L225.103 235.024L225.604 236.238L227.431 240.666V240.672L230.806 248.825Z" fill="#FDB022"/>
<path d="M224.114 232.645H210.151L211.978 228.218H222.293L224.114 232.645Z" fill="#9E77ED"/>
<path d="M227.432 240.659V240.665H206.84V240.659L208.661 236.231H225.605L227.432 240.659Z" fill="#9E77ED"/>
<path d="M224.114 232.645H219.921L218.094 228.218H222.293L224.114 232.645Z" fill="#7F56D9"/>
<path d="M227.432 240.659V240.665H223.233V240.659L221.412 236.231H225.605L227.432 240.659Z" fill="#7F56D9"/>
<path d="M42.8328 144.07C45.0468 144.07 46.9753 142.463 47.2798 140.275C47.3305 139.883 47.3623 139.478 47.3623 139.073C47.3623 134.196 43.3974 130.243 38.5063 130.243C38.3033 130.243 38.1066 130.25 37.91 130.269C37.504 125.462 33.4629 121.686 28.5401 121.686C23.3446 121.686 19.1323 125.885 19.1323 131.066C19.1323 131.293 19.1449 131.521 19.1576 131.749C17.6859 130.926 15.9667 130.49 14.1397 130.572C9.41353 130.787 5.53111 134.557 5.19489 139.263C5.19489 139.301 5.18854 139.339 5.18854 139.377C5.03629 141.932 7.11072 144.082 9.67997 144.082H42.8328V144.07Z" fill="#E9D7FE"/>
<path d="M254.164 151.001C261.168 151.001 261.555 140.496 254.558 140.154C254.367 140.148 254.177 140.141 253.98 140.141C252.731 140.141 251.532 140.337 250.402 140.698C249.464 135.012 244.515 130.673 238.546 130.673C232.443 130.673 227.412 135.208 226.639 141.078C225.192 140.388 223.568 139.996 221.855 139.996C220.897 139.996 219.971 140.116 219.083 140.344C212.961 141.919 214.243 151.001 220.568 151.001H254.164Z" fill="#E9D7FE"/>
<path d="M166.56 72.0342C173.557 72.0342 173.95 61.5284 166.953 61.1931C166.763 61.1868 166.572 61.1805 166.376 61.1805C165.126 61.1805 163.927 61.3766 162.798 61.7371C161.859 56.0509 156.911 51.7119 150.948 51.7119C144.851 51.7119 139.814 56.247 139.04 62.1166C137.594 61.4272 135.97 61.035 134.263 61.035C133.305 61.035 132.379 61.1552 131.491 61.3829C125.369 62.9515 126.657 72.0342 132.976 72.0342H166.56Z" fill="#E9D7FE"/>
<path d="M56.0841 111.054C65.3511 111.054 72.8635 103.564 72.8635 94.3244C72.8635 85.0849 65.3511 77.5947 56.0841 77.5947C46.8171 77.5947 39.3047 85.0849 39.3047 94.3244C39.3047 103.564 46.8171 111.054 56.0841 111.054Z" fill="#FEC84B"/>
<path d="M56.219 77.5947C60.7802 80.5865 63.7998 85.735 63.7998 91.5857C63.7998 100.827 56.2887 108.315 47.0204 108.315C46.976 108.315 46.9316 108.315 46.8809 108.309C49.5262 110.042 52.6854 111.054 56.0857 111.054C65.3541 111.054 72.8651 103.565 72.8651 94.3244C72.8651 85.1342 65.4238 77.6706 56.219 77.5947Z" fill="#FDB022"/>
<path d="M146.667 253.33H132.085C130.156 253.33 128.597 251.77 128.597 249.852V171.916H151.323V248.687C151.323 251.254 149.24 253.33 146.667 253.33Z" fill="#7F56D9"/>
<path d="M147.972 253.33H138.639V171.916H151.323V249.989C151.323 251.833 149.822 253.33 147.972 253.33Z" fill="#9E77ED"/>
<path d="M99.6974 97.0889H172.384C188.625 97.0889 201.796 110.215 201.796 126.414V177.939C201.796 179.124 200.834 180.083 199.645 180.083H72.0244C71.8922 180.083 71.7812 179.978 71.7812 179.841V124.922C71.7812 109.551 84.2806 97.0889 99.6974 97.0889Z" fill="#B692F6"/>
<g opacity="0.07">
<path d="M108.683 108.419H163.622C179.863 108.419 193.034 121.545 193.034 137.744V177.939C193.034 179.125 192.072 180.084 190.883 180.084H81.0097C80.8776 180.084 80.7666 179.979 80.7666 179.842V136.252C80.7666 120.881 93.266 108.419 108.683 108.419Z" fill="#ECF1F7"/>
</g>
<g opacity="0.65">
<path d="M199.371 180.347H119.084V173.497H201.797V177.929C201.797 179.267 200.713 180.347 199.371 180.347Z" fill="#9E77ED"/>
</g>
<g opacity="0.65">
<path d="M199.371 180.347H119.084V173.497H201.797V177.929C201.797 179.267 200.713 180.347 199.371 180.347Z" fill="#9E77ED"/>
</g>
<path d="M199.963 180.084H163.416V173.697H201.797V178.255C201.797 179.267 200.978 180.084 199.963 180.084Z" fill="#7F56D9"/>
<path opacity="0.15" d="M201.796 126.599H123.047V173.497H201.796V126.599Z" fill="#7F56D9"/>
<path d="M119.876 178.239H74.9523C73.203 178.239 71.7812 176.822 71.7812 175.078V124.227C71.7812 110.11 83.2553 98.6699 97.4142 98.6699C111.573 98.6699 123.047 110.11 123.047 124.227V175.078C123.047 176.822 121.625 178.239 119.876 178.239Z" fill="#9E77ED"/>
<path d="M119.348 178.238H74.4238V124.753C74.4238 112.385 84.4815 102.357 96.8857 102.357C109.29 102.357 119.348 112.385 119.348 124.753V178.238Z" fill="#1F2A37"/>
<path d="M121.15 171.388H83.9374C82.595 171.388 81.501 170.303 81.501 168.959V146.637C81.501 144.962 82.8645 143.607 84.5399 143.607H119.898C121.932 143.607 123.581 145.252 123.581 147.28V168.959C123.587 170.303 122.498 171.388 121.15 171.388Z" fill="#B692F6"/>
<path opacity="0.56" d="M121.673 171.388H102.541H83.4083C82.3513 171.388 81.4951 170.535 81.4951 169.481V146.274C81.4951 145.99 81.6008 145.71 81.7911 145.494C82.0131 145.241 82.3936 145.21 82.6526 145.426L97.2819 157.493L100.305 159.991C101.6 161.055 103.471 161.044 104.755 159.964L122.714 144.762C123.84 145.826 123.586 146.896 123.586 146.896V169.476C123.586 170.535 122.73 171.388 121.673 171.388Z" fill="#7F56D9"/>
<path d="M82.3725 171.625C82.2246 171.625 82.0819 171.567 81.9762 171.451C81.7806 171.235 81.8018 170.903 82.0184 170.708L97.7946 156.712C98.0113 156.517 98.3443 156.538 98.5398 156.754C98.7354 156.97 98.7142 157.302 98.4975 157.497L82.7214 171.493C82.621 171.583 82.4941 171.625 82.3725 171.625Z" fill="#B692F6"/>
<path d="M122.132 171.625C122.005 171.625 121.884 171.583 121.783 171.493L106.451 157.945C106.234 157.75 106.213 157.418 106.403 157.202C106.599 156.986 106.932 156.965 107.149 157.155L122.481 170.708C122.697 170.903 122.719 171.235 122.523 171.451C122.423 171.567 122.28 171.625 122.132 171.625Z" fill="#B692F6"/>
<path d="M119.612 178.238H77.8594V175.667C77.8594 173.306 79.7779 171.388 82.1509 171.388H119.612V178.238Z" fill="#FDA29B"/>
<path d="M118.074 187.724H42.5755C39.7321 187.724 37.4277 185.427 37.4277 182.592V178.239H124.104V181.712C124.104 185.032 121.403 187.724 118.074 187.724Z" fill="#B692F6"/>
<path d="M118.074 187.724H94.3704C91.527 187.724 89.2227 185.427 89.2227 182.592V178.239H124.105V181.712C124.105 185.032 121.404 187.724 118.074 187.724Z" fill="#9E77ED"/>
<path d="M143.659 135.556C147.745 135.556 151.058 132.253 151.058 128.179C151.058 124.105 147.745 120.802 143.659 120.802C139.573 120.802 136.26 124.105 136.26 128.179C136.26 132.253 139.573 135.556 143.659 135.556Z" fill="#7F56D9"/>
<path d="M143.66 130.55C142.344 130.55 141.281 129.491 141.281 128.179V81.2805C141.281 79.9683 142.344 78.9092 143.66 78.9092C144.976 78.9092 146.038 79.9683 146.038 81.2805V128.179C146.038 129.491 144.976 130.55 143.66 130.55Z" fill="#7F56D9"/>
<path d="M144.717 134.502C148.22 134.502 151.059 131.671 151.059 128.179C151.059 124.687 148.22 121.855 144.717 121.855C141.214 121.855 138.375 124.687 138.375 128.179C138.375 131.671 141.214 134.502 144.717 134.502Z" fill="#9E77ED"/>
<path d="M146.83 92.6887V81.2803H168.515L146.83 92.6887Z" fill="#B692F6"/>
<path d="M146.83 92.6887V81.2803H168.515L146.83 92.6887Z" fill="#B692F6"/>
<path d="M144.716 130.55C143.4 130.55 142.338 129.491 142.338 128.179V81.2805C142.338 79.9683 143.4 78.9092 144.716 78.9092C146.032 78.9092 147.095 79.9683 147.095 81.2805V128.179C147.095 129.491 146.032 130.55 144.716 130.55Z" fill="#9E77ED"/>
<path d="M144.716 131.867C142.602 131.867 140.885 130.155 140.885 128.047C140.885 125.939 142.602 124.227 144.716 124.227C146.831 124.227 148.548 125.939 148.548 128.047C148.548 130.155 146.831 131.867 144.716 131.867ZM144.716 124.754C142.893 124.754 141.413 126.229 141.413 128.047C141.413 129.865 142.893 131.34 144.716 131.34C146.54 131.34 148.02 129.865 148.02 128.047C148.02 126.229 146.54 124.754 144.716 124.754Z" fill="#7F56D9"/>
<path d="M229.096 204.073H176.552C175.897 204.073 175.367 203.543 175.367 202.888V187.62C175.367 186.965 175.897 186.436 176.552 186.436H229.096C229.751 186.436 230.281 186.965 230.281 187.62V202.888C230.288 203.543 229.751 204.073 229.096 204.073Z" fill="#7F56D9"/>
<path d="M187.421 197.738C188.98 196.178 188.98 193.648 187.421 192.088C185.861 190.528 183.332 190.528 181.772 192.088C180.212 193.648 180.212 196.178 181.772 197.738C183.332 199.299 185.861 199.299 187.421 197.738Z" fill="white"/>
<path d="M184.26 196.892C184.253 196.892 184.253 196.892 184.245 196.892C184.12 196.892 183.995 196.833 183.914 196.738L182.149 194.744C181.98 194.552 181.994 194.258 182.185 194.089C182.377 193.919 182.671 193.934 182.84 194.125L184.275 195.752L187.828 192.183C188.012 191.999 188.306 191.999 188.482 192.183C188.666 192.367 188.666 192.661 188.482 192.838L184.584 196.76C184.495 196.841 184.378 196.892 184.26 196.892Z" fill="#FDB022"/>
<path d="M222.668 192.568H194.567C194.442 192.568 194.332 192.464 194.332 192.331C194.332 192.206 194.435 192.095 194.567 192.095H222.668C222.793 192.095 222.903 192.198 222.903 192.331C222.896 192.464 222.793 192.568 222.668 192.568Z" fill="white"/>
<path d="M207.124 195.908H194.567C194.442 195.908 194.332 195.804 194.332 195.671C194.332 195.538 194.435 195.435 194.567 195.435H207.124C207.249 195.435 207.36 195.538 207.36 195.671C207.36 195.804 207.249 195.908 207.124 195.908Z" fill="white"/>
<path d="M207.124 199.697H194.567C194.442 199.697 194.332 199.593 194.332 199.46C194.332 199.334 194.435 199.224 194.567 199.224H207.124C207.249 199.224 207.36 199.327 207.36 199.46C207.352 199.593 207.249 199.697 207.124 199.697Z" fill="white"/>
<path d="M222.667 195.908H210.11C209.985 195.908 209.875 195.804 209.875 195.671C209.875 195.538 209.978 195.435 210.11 195.435H222.667C222.792 195.435 222.903 195.538 222.903 195.671C222.903 195.804 222.792 195.908 222.667 195.908Z" fill="white"/>
<path d="M214.869 219.591H162.317C161.662 219.591 161.133 219.062 161.133 218.407V203.139C161.133 202.484 161.662 201.954 162.317 201.954H214.862C215.517 201.954 216.046 202.484 216.046 203.139V218.407C216.054 219.054 215.524 219.591 214.869 219.591Z" fill="white"/>
<path d="M170.365 214.426C172.572 214.426 174.36 212.638 174.36 210.431C174.36 208.224 172.572 206.436 170.365 206.436C168.159 206.436 166.371 208.224 166.371 210.431C166.371 212.638 168.159 214.426 170.365 214.426Z" fill="#FDB022"/>
<path opacity="0.69" d="M208.433 208.086H180.333C180.208 208.086 180.098 207.983 180.098 207.85C180.098 207.724 180.201 207.613 180.333 207.613H208.433C208.558 207.613 208.669 207.717 208.669 207.85C208.669 207.983 208.566 208.086 208.433 208.086Z" fill="#FDB022"/>
<path opacity="0.69" d="M192.89 211.418H180.333C180.208 211.418 180.098 211.315 180.098 211.182C180.098 211.056 180.201 210.945 180.333 210.945H192.89C193.015 210.945 193.125 211.049 193.125 211.182C193.125 211.315 193.015 211.418 192.89 211.418Z" fill="#FDB022"/>
<path opacity="0.69" d="M192.89 215.215H180.333C180.208 215.215 180.098 215.112 180.098 214.979C180.098 214.853 180.201 214.742 180.333 214.742H192.89C193.015 214.742 193.125 214.846 193.125 214.979C193.125 215.112 193.015 215.215 192.89 215.215Z" fill="#FDB022"/>
<path opacity="0.69" d="M208.433 211.418H195.876C195.751 211.418 195.641 211.315 195.641 211.182C195.641 211.056 195.744 210.945 195.876 210.945H208.433C208.558 210.945 208.668 211.049 208.668 211.182C208.668 211.315 208.565 211.418 208.433 211.418Z" fill="#FDB022"/>
<path d="M210.39 134.327C218.094 134.327 224.34 128.1 224.34 120.418C224.34 112.737 218.094 106.51 210.39 106.51C202.685 106.51 196.439 112.737 196.439 120.418C196.439 128.1 202.685 134.327 210.39 134.327Z" fill="#53389E"/>
<path d="M213.593 105.601C216.244 93.3527 208.435 81.2803 196.151 78.6364C183.866 75.9926 171.758 83.7785 169.106 96.0267C166.454 108.275 174.263 120.347 186.548 122.991C198.833 125.635 210.941 117.849 213.593 105.601Z" fill="#FDA29B"/>
<path d="M191.34 115.877C188.777 115.877 186.62 113.967 186.328 111.43L186.29 111.076H196.396L196.358 111.43C196.053 113.967 193.903 115.877 191.34 115.877ZM187.013 111.709C187.419 113.745 189.221 115.244 191.34 115.244C193.459 115.244 195.26 113.745 195.666 111.709H187.013Z" fill="white"/>
<path d="M200.679 106.446H181.996V97.9324C181.996 93.0116 186.012 89.0078 190.947 89.0078H191.728C196.663 89.0078 200.679 93.0116 200.679 97.9324V106.446ZM182.63 105.813H200.044V97.9324C200.044 93.3594 196.314 89.6403 191.728 89.6403H190.947C186.361 89.6403 182.63 93.3594 182.63 97.9324V105.813Z" fill="white"/>
<path d="M200.367 111.709H182.313C180.746 111.709 179.471 110.438 179.471 108.876V108.648C179.471 107.086 180.746 105.814 182.313 105.814H200.367C201.934 105.814 203.209 107.086 203.209 108.648V108.876C203.209 110.438 201.934 111.709 200.367 111.709ZM182.313 106.447C181.088 106.447 180.099 107.434 180.099 108.648V108.876C180.099 110.09 181.088 111.077 182.306 111.077H200.361C201.579 111.077 202.569 110.09 202.569 108.876V108.648C202.569 107.434 201.579 106.447 200.361 106.447H182.313Z" fill="white"/>
<path d="M189.425 103.747H182.313C182.136 103.747 181.996 103.607 181.996 103.429C181.996 103.252 182.136 103.112 182.313 103.112H189.425C189.602 103.112 189.742 103.252 189.742 103.429C189.742 103.607 189.602 103.747 189.425 103.747Z" fill="white"/>
<path d="M190.49 103.747C190.408 103.747 190.325 103.716 190.262 103.659C190.236 103.627 190.211 103.595 190.198 103.557C190.179 103.513 190.173 103.475 190.173 103.437C190.173 103.392 190.179 103.348 190.198 103.31C190.211 103.272 190.236 103.24 190.262 103.208C190.294 103.183 190.332 103.158 190.37 103.139C190.484 103.094 190.624 103.12 190.713 103.208C190.745 103.24 190.77 103.272 190.783 103.31C190.802 103.348 190.808 103.392 190.808 103.437C190.808 103.475 190.802 103.513 190.783 103.557C190.77 103.595 190.745 103.627 190.713 103.659C190.687 103.684 190.649 103.709 190.611 103.728C190.573 103.741 190.529 103.747 190.49 103.747Z" fill="white"/>
<path d="M191.441 87.2868C191.263 87.2868 191.123 87.1476 191.123 86.9705V82.328C191.123 82.1509 191.263 82.0117 191.441 82.0117C191.619 82.0117 191.758 82.1509 191.758 82.328V86.9705C191.758 87.1476 191.612 87.2868 191.441 87.2868Z" fill="white"/>
<path d="M197.637 88.6285C197.574 88.6285 197.517 88.6095 197.46 88.5715C197.314 88.4767 197.276 88.2742 197.377 88.1351L198.684 86.2123C198.786 86.0668 198.976 86.0289 199.128 86.1301C199.274 86.2249 199.312 86.4273 199.211 86.5665L197.904 88.4893C197.834 88.5842 197.733 88.6285 197.637 88.6285Z" fill="white"/>
<path d="M185.039 88.6285C184.938 88.6285 184.836 88.5779 184.779 88.4893L183.472 86.5665C183.377 86.421 183.409 86.2249 183.555 86.1301C183.701 86.0289 183.897 86.0668 183.999 86.2123L185.306 88.1351C185.401 88.2806 185.369 88.4767 185.223 88.5715C185.166 88.6095 185.103 88.6285 185.039 88.6285Z" fill="white"/>
<path d="M96.8579 20.8166C98.1232 19.6855 99.225 18.2716 100.163 16.575C101.101 14.8566 101.57 13.2143 101.57 11.6482C101.57 10.082 101.374 8.87478 100.981 8.02646C100.588 7.17813 100.043 6.75397 99.3449 6.75397C98.6468 6.75397 97.7305 7.38478 96.5961 8.64639C95.4834 9.88625 94.469 11.5176 93.5527 13.5406C92.6582 15.5635 92.2109 17.4994 92.2109 19.3483C92.2109 20.2837 92.3418 21.045 92.6036 21.6323C92.8654 22.1978 93.1927 22.4806 93.5854 22.4806C94.5017 22.4806 95.5925 21.9259 96.8579 20.8166ZM93.6181 26.4286C92.0037 26.4286 90.5638 25.6455 89.2984 24.0794C88.0331 22.4915 87.4004 20.9145 87.4004 19.3483C87.4004 17.3472 87.7822 15.3025 88.5458 13.2143C89.3093 11.1044 90.2584 9.28807 91.3928 7.76544C92.5491 6.22105 93.8145 4.95944 95.1889 3.9806C96.5633 2.98001 97.8287 2.47972 98.985 2.47972C101.101 2.47972 102.836 3.38242 104.188 5.18783C105.541 6.97149 106.217 8.98354 106.217 11.224C106.217 13.4644 105.65 15.7375 104.515 18.0432C103.381 20.3272 101.81 22.2957 99.8031 23.9489C97.8178 25.602 95.7561 26.4286 93.6181 26.4286Z" fill="#1F2A37"/>
<path d="M119.312 9.65786C120.119 9.65786 120.981 10.3757 121.897 11.8113C122.835 13.2469 123.304 14.6826 123.304 16.1182C123.304 16.9883 122.933 18.0215 122.191 19.2178C121.45 20.4142 120.512 21.5453 119.377 22.6111C118.264 23.6552 116.966 24.547 115.483 25.2866C114.021 26.0262 112.625 26.396 111.294 26.396H110.901C109.527 32.095 108.556 34.9445 107.989 34.9445C107.531 34.9445 107.051 34.5638 106.549 33.8025C106.025 33.0412 105.764 32.4104 105.764 31.9101C105.764 31.4098 106.08 29.8763 106.713 27.3095C108.589 19.6964 109.527 13.9539 109.527 10.082C109.527 9.42946 109.843 9.10318 110.476 9.10318C111 9.10318 111.665 9.39683 112.472 9.98413C113.279 10.5714 113.781 11.3328 113.978 12.2681C115.832 10.5279 117.61 9.65786 119.312 9.65786ZM111.916 22.5132C113.618 22.187 115.221 21.2516 116.726 19.7072C118.254 18.1629 119.017 16.8251 119.017 15.694C119.017 14.5629 118.701 13.9974 118.068 13.9974C117.152 13.9974 116.181 14.5194 115.156 15.5635C114.741 15.9985 114.283 16.6402 113.781 17.4885C113.279 18.3369 112.843 19.3266 112.472 20.4577L111.916 22.5132Z" fill="#1F2A37"/>
<path d="M136.92 9.65786C137.728 9.65786 138.589 10.3757 139.506 11.8113C140.444 13.2469 140.913 14.6826 140.913 16.1182C140.913 16.9883 140.542 18.0215 139.8 19.2178C139.058 20.4142 138.12 21.5453 136.986 22.6111C135.873 23.6552 134.575 24.547 133.092 25.2866C131.63 26.0262 130.234 26.396 128.903 26.396H128.51C127.136 32.095 126.165 34.9445 125.598 34.9445C125.14 34.9445 124.66 34.5638 124.158 33.8025C123.634 33.0412 123.372 32.4104 123.372 31.9101C123.372 31.4098 123.689 29.8763 124.321 27.3095C126.198 19.6964 127.136 13.9539 127.136 10.082C127.136 9.42946 127.452 9.10318 128.085 9.10318C128.608 9.10318 129.274 9.39683 130.081 9.98413C130.888 10.5714 131.39 11.3328 131.586 12.2681C133.441 10.5279 135.219 9.65786 136.92 9.65786ZM129.525 22.5132C131.226 22.187 132.83 21.2516 134.335 19.7072C135.862 18.1629 136.626 16.8251 136.626 15.694C136.626 14.5629 136.31 13.9974 135.677 13.9974C134.761 13.9974 133.79 14.5194 132.764 15.5635C132.35 15.9985 131.892 16.6402 131.39 17.4885C130.888 18.3369 130.452 19.3266 130.081 20.4577L129.525 22.5132Z" fill="#1F2A37"/>
<path d="M153.089 9.65786C153.918 9.65786 154.736 10.1473 155.544 11.1261C156.351 12.1049 156.755 12.9859 156.755 13.769C156.755 14.291 156.525 14.552 156.067 14.552C155.805 14.552 155.424 14.4542 154.922 14.2584C154.42 14.0409 153.907 13.9321 153.384 13.9321C152.882 13.9321 152.129 14.1061 151.126 14.4542C150.144 14.8022 149.653 15.259 149.653 15.8245C149.653 16.042 149.948 16.3574 150.537 16.7707C151.126 17.184 151.769 17.6082 152.468 18.0432C153.166 18.4783 153.809 19.0873 154.398 19.8704C154.987 20.6317 155.282 21.4692 155.282 22.3827C155.282 23.2746 154.616 24.1773 153.286 25.0908C151.977 26.0044 150.428 26.4612 148.639 26.4612C146.872 26.4612 145.355 26.0588 144.09 25.254C142.825 24.4492 142.192 23.6226 142.192 22.7743C142.192 21.9259 142.541 21.5018 143.239 21.5018C143.523 21.5018 143.861 21.6105 144.254 21.8281C145.344 22.4589 146.697 22.7743 148.312 22.7743C149.948 22.7743 150.766 22.5567 150.766 22.1217C150.766 21.6867 150.45 21.2081 149.817 20.6861C149.206 20.1423 148.53 19.642 147.788 19.1852C147.068 18.7284 146.392 18.1737 145.759 17.5212C145.148 16.8469 144.843 16.1943 144.843 15.5635C144.843 14.3889 145.912 13.1164 148.05 11.746C150.188 10.3539 151.868 9.65786 153.089 9.65786Z" fill="#1F2A37"/>
<path d="M160.577 23.5573C160.577 22.97 160.828 22.3936 161.329 21.8281C161.831 21.2408 162.333 20.9471 162.835 20.9471C163.336 20.9471 163.915 21.5344 164.569 22.709C165.245 23.8836 165.584 24.7646 165.584 25.3519C165.584 25.6346 165.398 25.95 165.027 26.2981C164.678 26.6461 164.329 26.8201 163.98 26.8201C163.326 26.8201 162.595 26.4177 161.787 25.6129C160.98 24.8081 160.577 24.1229 160.577 23.5573ZM163.947 0.946208C163.947 0.315403 164.285 0 164.962 0C165.638 0 166.533 0.478542 167.645 1.43563C168.78 2.39271 169.347 3.08877 169.347 3.52381C169.347 4.95944 168.834 7.92858 167.809 12.4312C166.805 16.9121 165.933 19.1526 165.191 19.1526C164.602 19.1526 164.024 18.848 163.456 18.239C162.889 17.6299 162.595 16.9991 162.573 16.3466C162.529 16.1073 162.617 15.4112 162.835 14.2584C163.053 13.0838 163.293 11.2892 163.555 8.87479C163.816 6.43857 163.947 3.79571 163.947 0.946208Z" fill="#1F2A37"/>
<path d="M176.204 23.5573C176.204 22.97 176.455 22.3936 176.957 21.8281C177.458 21.2408 177.96 20.9471 178.462 20.9471C178.964 20.9471 179.542 21.5344 180.196 22.709C180.873 23.8836 181.211 24.7646 181.211 25.3519C181.211 25.6346 181.025 25.95 180.655 26.2981C180.306 26.6461 179.956 26.8201 179.607 26.8201C178.953 26.8201 178.222 26.4177 177.415 25.6129C176.608 24.8081 176.204 24.1229 176.204 23.5573ZM179.575 0.946208C179.575 0.315403 179.913 0 180.589 0C181.265 0 182.16 0.478542 183.273 1.43563C184.407 2.39271 184.974 3.08877 184.974 3.52381C184.974 4.95944 184.462 7.92858 183.436 12.4312C182.433 16.9121 181.56 19.1526 180.818 19.1526C180.229 19.1526 179.651 18.848 179.084 18.239C178.517 17.6299 178.222 16.9991 178.2 16.3466C178.157 16.1073 178.244 15.4112 178.462 14.2584C178.68 13.0838 178.92 11.2892 179.182 8.87479C179.444 6.43857 179.575 3.79571 179.575 0.946208Z" fill="#1F2A37"/>
</svg>
