<svg width="215" height="119" viewBox="0 0 215 119" fill="none" xmlns="http://www.w3.org/2000/svg">
<path d="M208.58 119C212.039 119 214.862 116.233 214.917 112.78C215.18 95.5709 216.569 70.1798 184.094 63.16C157.811 57.4767 173.397 10.8624 102.612 13.873C51.8036 16.0341 65.2985 58.7783 25.7946 62.3354C-0.493264 64.7051 -0.722243 97.886 0.288253 113.088C0.507277 116.411 3.27494 118.995 6.61506 118.995H208.58V119Z" fill="#DDDDEC"/>
<path opacity="0.55" d="M184.094 63.1552C157.811 57.4718 173.397 10.8576 102.612 13.8681C90.5262 14.3848 82.0838 17.1967 75.6973 21.2257C77.8477 20.9425 80.1325 20.7438 82.5667 20.6444C153.346 17.6338 137.766 64.2481 164.049 69.9314C196.18 76.8766 195.165 101.801 194.881 118.995H208.58C212.04 118.995 214.862 116.228 214.917 112.775C215.181 95.5661 216.569 70.1798 184.094 63.1552Z" fill="#EAEBF2"/>
<path d="M158.078 0V115.057L152.956 115.728L129.654 118.776V3.71911L158.078 0Z" fill="#D6D6D6"/>
<path d="M101.236 0V115.057L72.8184 118.776V3.71911L82.8157 2.40567L101.236 0Z" fill="#D6D6D6"/>
<path d="M129.654 3.71911V118.776L101.236 115.057V0L122.266 2.75131L129.654 3.71911Z" fill="#D6D6D6"/>
<path d="M72.8182 3.71911V118.776L48.3566 115.576L47.0793 115.41L44.3936 115.057V0L46.382 0.262691L49.4543 0.663636L72.8182 3.71911Z" fill="#D6D6D6"/>
<path d="M129.661 6.16605L155.365 2.82715V112.402L129.661 115.734V6.16605Z" fill="#DCDBDB"/>
<path d="M72.8184 6.37343L101.236 2.82715V112.402L72.8184 115.942V6.37343Z" fill="#DCDBDB"/>
<path d="M129.661 6.26956L101.236 2.93066V112.499L129.661 115.838V6.26956Z" fill="#EBEBEB"/>
<path d="M72.8182 6.37343L47.1069 2.82715V112.402L72.8182 115.942V6.37343Z" fill="#EBEBEB"/>
<path d="M69.8149 5.95874L67.5158 13.8186L66.9773 15.6782L61.3089 35.0549L60.9706 35.8222L59.3136 35.1931L47.1069 30.5823V28.5222L59.9764 33.3889L68.0543 5.7168L69.8149 5.95874Z" fill="white"/>
<path d="M96.3823 3.43555L95.3328 4.07153L93.5239 5.16375L82.1803 12.0144L80.6407 12.9476L72.9149 17.6207L72.8113 17.593L66.9772 15.6782L66.1694 15.4155L66.6527 13.5421L67.5158 13.8186L72.7146 15.5261L72.8113 15.4639L91.7565 4.01623V4.00931H91.7634L93.6689 3.77428L94.6631 3.64985H94.67L96.3823 3.43555Z" fill="white"/>
<path d="M124.22 5.63414L122.743 11.8073L122.245 13.895L114.057 47.9614L113.608 49.8486L113.601 49.8763L107.533 47.5121L105.427 46.6411L101.208 44.899L100.684 44.6778L99.8343 43.3298L80.6406 12.9479L80.1987 12.2497L81.6141 11.116L82.1802 12.0147L90.6586 25.4325L91.7978 27.2437L101.788 43.0533L112.421 47.3047L117.903 24.4923L118.393 22.4531L122.473 5.42676L124.22 5.63414Z" fill="white"/>
<path d="M119.215 23.1643L118.165 24.7128L117.903 24.4916L101.236 10.1198L100.753 9.70505L99.7103 9.05525L98.1983 8.10127L93.5241 5.16332L93.1099 4.90064L93.6691 3.77385L94.6633 3.64941H94.6702L95.333 4.0711L101.236 7.7902L101.754 8.1151L118.393 22.4523L119.215 23.1643Z" fill="white"/>
<path d="M155.365 30.7415V32.8499L150.85 30.7346L149.227 29.9672L129.198 20.5589L122.246 13.8949L121.106 12.8027L122.232 11.3164L122.743 11.8072L130.116 18.879L155.365 30.7415Z" fill="white"/>
<path d="M138.678 84.7098L137 84.2328L149.414 29.1514L151.092 29.6353L138.678 84.7098Z" fill="white"/>
<path d="M155.365 77.4785V79.5178L134.197 86.9491L132.512 87.5367L130.082 88.3939L103.991 112.824L101.574 112.54L110.577 104.114L112.386 102.42L120.319 94.9887L121.748 93.6545L129.239 86.6449L137.076 83.8936L139.023 83.2093L155.365 77.4785Z" fill="white"/>
<path d="M129.557 56.0698L112.718 49.5371L113.277 47.6914L129.764 54.0858L144.746 52.5097L144.905 54.4522L129.557 56.0698Z" fill="white"/>
<path d="M91.577 27.769L90.0166 26.9118L98.5571 7.27246L100.117 8.12965L91.577 27.769Z" fill="white"/>
<path d="M112.766 102.476L112.538 104.412L110.577 104.114L100.891 102.663L72.7285 92.8189L47.1069 95.667V93.7037L64.4434 91.7819L66.7218 91.5331L72.9011 90.8418L73.0737 90.904L89.1605 96.5172L90.9763 97.1532L101.264 100.748L112.386 102.421L112.766 102.476Z" fill="white"/>
<path d="M53.2724 53.567L47.1069 67.7798V63.321L59.3136 35.1927L59.7486 34.1973L61.3089 35.0545L60.9706 35.8218L54.1009 51.6522L53.2724 53.567Z" fill="white"/>
<path d="M67.0118 91.8364L65.8174 93.2535L64.4434 91.7811L47.1069 73.2408V70.5518L60.5909 84.9719L61.9786 86.4513L66.7218 91.5322L67.0118 91.8364Z" fill="white"/>
<path d="M72.9217 54.5837L52.6992 53.5398L52.7821 51.5835L72.7076 52.6204L100.98 42.9355L101.491 44.802L72.9217 54.5837Z" fill="white"/>
<path d="M61.7921 87.0462L60.1558 86.4102L70.2704 53.042L71.9136 53.678L61.7921 87.0462Z" fill="white"/>
<path d="M155.365 62.9069V64.8702L143.49 63.3908L142.737 63.2941L142.924 61.3516L143.918 61.476L155.365 62.9069Z" fill="white"/>
<path d="M120.52 95.6252L105.289 46.2054L106.932 45.5625L122.156 94.9892L120.52 95.6252Z" fill="white"/>
<path d="M90.0856 98.286L88.7876 96.9864L100.69 81.9648L114.451 73.4551L115.286 75.1695L101.781 83.5132L90.0856 98.286Z" fill="white"/>
<path d="M124.22 5.63414L122.743 11.8073L122.245 13.895L114.057 47.9614L113.608 49.8486L113.601 49.8763L107.533 47.5121L105.427 46.6411L101.208 44.899L100.684 44.6778L99.8343 43.3298L80.6406 12.9479L80.1987 12.2497L81.6141 11.116L82.1802 12.0147L90.6586 25.4325L91.7978 27.2437L101.788 43.0533L112.421 47.3047L117.903 24.4923L118.393 22.4531L122.473 5.42676L124.22 5.63414Z" fill="white"/>
<path d="M129.557 56.0698L112.718 49.5371L113.277 47.6914L129.764 54.0858L144.746 52.5097L144.905 54.4522L129.557 56.0698Z" fill="white"/>
<path d="M112.766 102.476L112.538 104.412L110.57 104.114L100.891 102.663L89.7405 98.7639H89.7336L78.3761 94.7959L72.7285 92.8258L47.1069 95.667V93.7037L64.4434 91.7819L66.7218 91.5331L72.9011 90.8418L73.0737 90.904L78.3761 92.7567L89.1605 96.5241L90.9763 97.1532H90.9832L91.0108 97.167L101.264 100.748L112.386 102.421L112.766 102.476Z" fill="white"/>
<path d="M122.156 94.9892L120.52 95.6252L114.389 75.7301V75.7232L113.809 73.8567L105.42 46.6478V46.6409L105.289 46.2054L105.496 46.1294L106.932 45.5625L107.533 47.5119L115.928 74.7761L122.156 94.9892Z" fill="white"/>
<path d="M115.286 75.1635V75.1704L114.388 75.7303L101.781 83.5141L90.9831 97.1532L90.0856 98.2869L88.7876 96.9873L89.1604 96.5241L100.69 81.9657L113.808 73.8569L114.451 73.4629L115.286 75.1635Z" fill="white"/>
<path d="M146.383 113.563L144.532 113.805L132.512 87.5366L132.181 86.8039L133.72 85.9121L134.197 86.949L146.383 113.563Z" fill="white"/>
<path d="M80.0951 46.9656L94.8633 41.9054L85.2112 26.6211L77.0918 29.3517L80.0951 46.9656Z" fill="#EBEBEB"/>
<path d="M133.783 49.3986L142.22 48.5138L146.072 31.7017L136.979 27.4365L133.783 49.3986Z" fill="#EBEBEB"/>
<path d="M155.365 25.8676L136.385 17.3994V5.29503L155.365 2.82715V25.8676Z" fill="#EBEBEB"/>
<path d="M75.0483 19.2446L79.7708 16.3896L84.0031 23.1089L76.4637 25.6874L75.0483 19.2446Z" fill="#EBEBEB"/>
<path d="M105.903 85.0275L113.602 80.2715L117.73 93.6616L112.214 98.8255L105.903 97.8785V85.0275Z" fill="#DCDBDB"/>
<path d="M105.413 6.99596V3.4082L120.713 5.21937L117.744 17.621L105.413 6.99596Z" fill="#DCDBDB"/>
<path d="M49.979 68.4234L59.8037 78.9309L66.1556 57.902L54.7636 57.3145L49.979 68.4234Z" fill="#DCDBDB"/>
<path d="M49.8135 26.1991V9.08984L63.691 11.0877L58.3402 29.4205L49.8135 26.1991Z" fill="#DCDBDB"/>
<path d="M49.8135 6.99534L63.691 8.99315L64.7956 5.26713L49.8135 3.2002V6.99534Z" fill="#DCDBDB"/>
<path d="M75.7109 113.046V97.0146L85.8947 100.589V111.774L75.7109 113.046Z" fill="#EBEBEB"/>
<path d="M49.2749 98.2657L57.1871 97.3809V111.435L49.2749 110.342V98.2657Z" fill="#DCDBDB"/>
<path d="M148.854 110.011L140.031 90.724L155.365 85.3389V109.16L148.854 110.011Z" fill="#EBEBEB"/>
<path d="M127.348 49.3438V39.6105L118.538 36.5205L116.46 45.203L127.348 49.3438Z" fill="#DCDBDB"/>
<path d="M178.747 47.9072H136.55C136.024 47.9072 135.599 47.4813 135.599 46.9549V34.6818C135.599 34.1554 136.024 33.7295 136.55 33.7295H178.747C179.272 33.7295 179.698 34.1554 179.698 34.6818V46.9549C179.704 47.4813 179.272 47.9072 178.747 47.9072Z" fill="#7F56D9"/>
<path d="M145.279 42.8149C146.532 41.5607 146.532 39.5272 145.279 38.2729C144.026 37.0187 141.995 37.0187 140.743 38.2729C139.49 39.5272 139.49 41.5607 140.743 42.815C141.995 44.0692 144.026 44.0692 145.279 42.8149Z" fill="white"/>
<path d="M142.741 42.1346C142.736 42.1346 142.736 42.1346 142.73 42.1346C142.629 42.1346 142.529 42.0873 142.464 42.0104L141.046 40.4075C140.91 40.2537 140.922 40.0172 141.076 39.8811C141.229 39.7451 141.465 39.7569 141.601 39.9107L142.753 41.2178L145.606 38.3492C145.754 38.2013 145.99 38.2013 146.132 38.3492C146.28 38.4971 146.28 38.7336 146.132 38.8756L143.001 42.0282C142.93 42.0932 142.836 42.1346 142.741 42.1346Z" fill="#FDB022"/>
<path d="M173.583 38.6569H151.017C150.917 38.6569 150.828 38.5741 150.828 38.4676C150.828 38.367 150.911 38.2783 151.017 38.2783H173.583C173.684 38.2783 173.772 38.3611 173.772 38.4676C173.767 38.5741 173.684 38.6569 173.583 38.6569Z" fill="white"/>
<path d="M161.101 41.3414H151.017C150.917 41.3414 150.828 41.2586 150.828 41.1522C150.828 41.0457 150.911 40.9629 151.017 40.9629H161.101C161.201 40.9629 161.29 41.0457 161.29 41.1522C161.29 41.2586 161.201 41.3414 161.101 41.3414Z" fill="white"/>
<path d="M161.101 44.3883H151.017C150.917 44.3883 150.828 44.3055 150.828 44.199C150.828 44.0985 150.911 44.0098 151.017 44.0098H161.101C161.201 44.0098 161.29 44.0926 161.29 44.199C161.284 44.3055 161.201 44.3883 161.101 44.3883Z" fill="white"/>
<path d="M173.583 41.3414H163.5C163.399 41.3414 163.311 41.2586 163.311 41.1522C163.311 41.0457 163.393 40.9629 163.5 40.9629H173.583C173.684 40.9629 173.773 41.0457 173.773 41.1522C173.773 41.2586 173.684 41.3414 173.583 41.3414Z" fill="white"/>
<g filter="url(#filter0_dd_556_12325)">
<path d="M167.322 60.3818H125.12C124.594 60.3818 124.168 59.9559 124.168 59.4295V47.1564C124.168 46.63 124.594 46.2041 125.12 46.2041H167.316C167.842 46.2041 168.267 46.63 168.267 47.1564V59.4295C168.273 59.95 167.848 60.3818 167.322 60.3818Z" fill="white"/>
<path d="M131.582 56.2301C133.354 56.2301 134.79 54.7921 134.79 53.0183C134.79 51.2446 133.354 49.8066 131.582 49.8066C129.811 49.8066 128.375 51.2446 128.375 53.0183C128.375 54.7921 129.811 56.2301 131.582 56.2301Z" fill="#FDB022"/>
<path opacity="0.69" d="M162.153 51.1315H139.586C139.486 51.1315 139.397 51.0487 139.397 50.9422C139.397 50.8417 139.48 50.7529 139.586 50.7529H162.153C162.253 50.7529 162.342 50.8357 162.342 50.9422C162.342 51.0487 162.259 51.1315 162.153 51.1315Z" fill="#FDB022"/>
<path opacity="0.69" d="M149.67 53.8102H139.586C139.486 53.8102 139.397 53.7274 139.397 53.6209C139.397 53.5204 139.48 53.4316 139.586 53.4316H149.67C149.771 53.4316 149.859 53.5145 149.859 53.6209C149.859 53.7274 149.771 53.8102 149.67 53.8102Z" fill="#FDB022"/>
<path opacity="0.69" d="M149.67 56.8629H139.586C139.486 56.8629 139.397 56.7801 139.397 56.6737C139.397 56.5731 139.48 56.4844 139.586 56.4844H149.67C149.771 56.4844 149.859 56.5672 149.859 56.6737C149.859 56.7801 149.771 56.8629 149.67 56.8629Z" fill="#FDB022"/>
<path opacity="0.69" d="M162.153 53.8102H152.069C151.968 53.8102 151.88 53.7274 151.88 53.6209C151.88 53.5204 151.963 53.4316 152.069 53.4316H162.153C162.253 53.4316 162.342 53.5145 162.342 53.6209C162.342 53.7274 162.259 53.8102 162.153 53.8102Z" fill="#FDB022"/>
</g>
<path opacity="0.33" d="M85.8912 89.1124C91.8556 81.2894 90.3568 70.1066 82.5436 64.1349C74.7304 58.1631 63.5615 59.6638 57.5972 67.4867C51.6329 75.3096 53.1317 86.4924 60.9449 92.4642C68.7581 98.436 79.9269 96.9353 85.8912 89.1124Z" fill="white"/>
<path d="M87.8026 65.301C84.8354 61.5847 80.6181 58.8976 75.7396 57.9073C74.7561 57.707 73.7393 57.5791 72.7002 57.5235C72.5113 57.5123 72.3335 57.5068 72.1501 57.4956H72.1446C69.6275 57.4289 67.1938 57.8183 64.9323 58.5805C63.9099 58.9254 62.9265 59.3538 61.9819 59.8489H61.9708C61.154 60.2773 60.3594 60.7613 59.6037 61.301C58.448 62.1132 57.3756 63.0479 56.4088 64.0827L56.4032 64.0882C54.4807 66.1467 52.9693 68.6001 52.0136 71.3206C51.3524 73.1565 50.9468 75.1204 50.8412 77.1677C50.8412 77.2122 50.8412 77.2567 50.8357 77.3012C50.7634 78.8256 50.8579 80.3221 51.1024 81.7686V81.7741C51.1746 82.2025 51.258 82.6309 51.3635 83.0537C51.4913 83.6156 51.6469 84.1664 51.8247 84.706V84.7116C52.5248 86.8757 53.575 88.8897 54.9141 90.6866C54.6252 90.7923 54.3529 90.9425 54.1084 91.1595L53.0582 92.083L51.8803 93.1234L51.0024 93.8911L50.3856 94.4419L48.0408 96.5003V96.5059L48.0352 96.5115L45.9849 98.314L45.2348 98.9705L44.2402 99.8495L42.0565 101.769L41.7843 102.014C41.7287 102.064 41.6731 102.114 41.6287 102.169C40.7563 103.082 40.7119 104.528 41.562 105.491C41.712 105.663 41.8787 105.808 42.0565 105.925C42.1288 105.969 42.1954 106.014 42.2732 106.053C42.5844 106.214 42.9289 106.309 43.2789 106.325C43.6012 106.342 43.929 106.297 44.2402 106.186C44.5236 106.086 44.7958 105.925 45.0348 105.719L45.7404 105.096L45.9849 104.879L51.3246 100.178L51.3469 100.155L52.3526 99.2765L53.6306 98.1471L55.1363 96.8286L55.1697 96.7952L57.3645 94.8591C57.6367 94.6144 57.8479 94.3195 57.9868 94.0024C59.9927 95.7437 62.343 97.1123 64.9323 97.9858C65.688 98.2472 66.4659 98.4586 67.2605 98.6255C68.2995 98.8481 69.3719 98.9927 70.4721 99.0539C72.1779 99.1429 73.8448 99.0261 75.4506 98.7201H75.4562C76.8842 98.4531 78.2511 98.0414 79.5624 97.4906H79.5679C80.2458 97.2069 80.9015 96.8898 81.546 96.5393C83.9575 95.2152 86.0856 93.4238 87.8026 91.2763C89.7862 88.8006 91.2198 85.8521 91.9032 82.6031V82.5975C92.0421 81.9466 92.1477 81.2846 92.2199 80.6114C92.2644 80.2108 92.3033 79.8103 92.32 79.3986C92.6089 74.0967 90.8753 69.1453 87.8026 65.301ZM66.8715 95.4711C66.8548 95.4656 66.8382 95.4656 66.8215 95.46C66.7826 95.4489 66.7493 95.4377 66.7104 95.4322L66.427 95.3487C66.3659 95.3265 66.2992 95.3098 66.2381 95.2875C66.2159 95.282 66.1881 95.2708 66.1658 95.2653C66.0547 95.2319 65.9436 95.1929 65.8325 95.154C65.6324 95.0872 65.438 95.0205 65.249 94.9426C65.1435 94.9037 65.0379 94.8592 64.9323 94.8202C64.9212 94.8146 64.9157 94.8146 64.9101 94.8091C64.8101 94.7701 64.7045 94.7256 64.6045 94.6811C64.5823 94.6756 64.56 94.6644 64.5378 94.6533C64.4823 94.6311 64.4322 94.6088 64.3767 94.5865C64.2489 94.5309 64.1155 94.4697 63.9933 94.4085C63.9655 94.3974 63.9433 94.3863 63.9155 94.3751C63.8377 94.3362 63.7655 94.2972 63.6877 94.2583C63.6155 94.2249 63.5432 94.186 63.4654 94.147C63.4599 94.1415 63.4488 94.1415 63.4432 94.1359C63.3099 94.0747 63.1876 94.0024 63.0598 93.9301C63.0376 93.9189 63.0154 93.9078 62.9931 93.8967C62.8376 93.8132 62.682 93.7242 62.5319 93.6297C62.3097 93.5017 62.0874 93.3626 61.8707 93.2235C61.6429 93.0733 61.4151 92.9175 61.1984 92.7618C61.1984 92.7618 61.1929 92.7618 61.1929 92.7562C61.0428 92.6505 60.8984 92.5448 60.7539 92.428C60.6705 92.3668 60.5928 92.3056 60.515 92.2444C60.3483 92.1109 60.1871 91.9829 60.026 91.8382H60.0204C59.9927 91.816 59.9704 91.7937 59.9427 91.7715C59.8815 91.7159 59.8204 91.6602 59.7593 91.6046C59.6759 91.5323 59.587 91.4544 59.5037 91.3709C59.3537 91.2318 59.2036 91.0872 59.0592 90.9481C59.0481 90.937 59.037 90.9259 59.0258 90.9147C58.9481 90.8368 58.8703 90.759 58.7925 90.6755C58.7147 90.5976 58.6369 90.5142 58.5647 90.4363C58.4869 90.3528 58.4146 90.2749 58.3424 90.1915C58.2646 90.108 58.1979 90.0246 58.1257 89.9411C58.1201 89.9356 58.1201 89.9356 58.1146 89.93C58.0757 89.8855 58.0368 89.8466 58.0035 89.8021C57.9757 89.7687 57.9423 89.7297 57.9146 89.6964C57.8534 89.624 57.7923 89.5517 57.7368 89.4794V89.4738C57.6756 89.4071 57.6256 89.3403 57.5701 89.2735C57.5089 89.1901 57.4478 89.1122 57.3867 89.0343C57.3534 88.9898 57.3256 88.9509 57.2978 88.9119C57.22 88.8118 57.1478 88.7116 57.0755 88.6059C57.0311 88.5447 56.9866 88.478 56.9422 88.4168C56.8588 88.2999 56.781 88.1831 56.7033 88.0607C56.6366 87.9606 56.5699 87.8549 56.5032 87.7547C56.5032 87.7492 56.4977 87.7381 56.4921 87.7325C56.4088 87.6045 56.3365 87.4766 56.2587 87.3486C56.2365 87.3152 56.2199 87.2819 56.1976 87.2485C56.181 87.2262 56.1698 87.1984 56.1532 87.1706C56.1532 87.1706 56.1532 87.165 56.1476 87.1595C56.1476 87.1595 56.1476 87.1539 56.1421 87.1539C55.9643 86.8479 55.7976 86.5308 55.642 86.2137C55.642 86.2081 55.6364 86.2081 55.6364 86.2026C55.5809 86.0913 55.5309 85.98 55.4753 85.8743C55.4697 85.8632 55.4642 85.8521 55.4586 85.8409C55.4142 85.7352 55.3642 85.6295 55.3142 85.5183C55.303 85.4905 55.2864 85.4571 55.2753 85.4293C55.2697 85.407 55.2586 85.3847 55.2475 85.3569C55.2086 85.279 55.1752 85.19 55.1419 85.1066C55.0641 84.9341 54.9919 84.7561 54.9308 84.5781C54.9308 84.5725 54.9252 84.5669 54.9196 84.5558C54.8196 84.3055 54.7307 84.0495 54.6529 83.7936C54.6307 83.7157 54.6085 83.6434 54.5807 83.5711C54.5363 83.4376 54.4974 83.3041 54.464 83.1705C54.4362 83.076 54.4085 82.9758 54.3807 82.8757C54.3529 82.7755 54.3307 82.6754 54.3084 82.5753C54.2862 82.4918 54.264 82.4084 54.2473 82.3305C54.2418 82.3249 54.2418 82.3249 54.2418 82.3193C54.214 82.2025 54.1918 82.0857 54.164 81.9633C54.164 81.9466 54.1584 81.9243 54.1529 81.9076C54.114 81.7296 54.0806 81.546 54.0528 81.3624C54.0417 81.2957 54.0306 81.2289 54.0195 81.1677C54.0139 81.151 54.014 81.1455 54.014 81.1288C53.9917 80.9841 53.9639 80.8395 53.9473 80.6948C53.9473 80.667 53.9417 80.6392 53.9362 80.617V80.6114C53.8862 80.2164 53.8473 79.8214 53.8195 79.4264V79.3708C53.8084 79.2094 53.8084 79.0481 53.8028 78.8868C53.7917 78.642 53.7861 78.3972 53.7861 78.1468C53.7861 78.1134 53.7861 78.0856 53.7861 78.0522C53.7861 77.813 53.7972 77.5682 53.8084 77.3234C53.8139 77.1955 53.8195 77.0675 53.8306 76.934C53.8306 76.8839 53.8361 76.8283 53.8417 76.7782C53.8417 76.7671 53.8417 76.756 53.8473 76.7449C53.8584 76.5835 53.875 76.4166 53.8973 76.2553C53.8973 76.233 53.9028 76.2108 53.9028 76.1941C53.9195 76.0216 53.9473 75.8492 53.9695 75.6823V75.6656C53.9917 75.532 54.014 75.4041 54.0362 75.2706C54.0417 75.2261 54.0528 75.1816 54.0584 75.1315C54.0695 75.0592 54.0862 74.9813 54.1029 74.9089C54.1529 74.6085 54.2195 74.3137 54.2918 74.0244C54.3029 73.9632 54.3196 73.902 54.3362 73.8463C54.3473 73.7907 54.3696 73.7351 54.3862 73.6739C54.4029 73.6127 54.414 73.5515 54.4362 73.4903C54.4362 73.4792 54.4362 73.468 54.4418 73.4569C54.464 73.379 54.4862 73.2956 54.5085 73.2177C54.5251 73.1565 54.5474 73.0897 54.5696 73.0285C54.5807 72.9785 54.6029 72.9228 54.6196 72.8672C54.6363 72.8171 54.6529 72.7671 54.6696 72.7114C54.7085 72.5779 54.753 72.4499 54.7974 72.322C54.8363 72.2274 54.8641 72.1328 54.903 72.0438C54.9085 72.016 54.9196 71.9937 54.9308 71.9715C54.9974 71.7879 55.0697 71.6043 55.1419 71.4263C55.1919 71.3039 55.2419 71.1871 55.303 71.0647C55.3586 70.9367 55.4142 70.8088 55.4697 70.6808C55.5309 70.5584 55.592 70.4304 55.6587 70.3025C55.692 70.2413 55.7253 70.1745 55.7587 70.1078C55.7865 70.0521 55.8142 69.9909 55.8476 69.9353C55.8476 69.9242 55.8531 69.9186 55.8587 69.9075C55.9198 69.7962 55.9809 69.6794 56.0476 69.5681C56.1143 69.4457 56.1865 69.3233 56.2587 69.2065C56.3199 69.1008 56.381 68.9951 56.4421 68.9005C56.5255 68.7614 56.6144 68.6279 56.6977 68.5C56.8477 68.2663 57.0033 68.0382 57.17 67.8157C57.2145 67.7489 57.2589 67.6877 57.3089 67.621C57.37 67.5375 57.4312 67.4596 57.4923 67.3817C57.4978 67.3706 57.5089 67.3595 57.5201 67.3483C57.5589 67.2983 57.5978 67.2482 57.6423 67.1981C57.8701 66.9088 58.1035 66.6307 58.3424 66.3636C58.4313 66.2635 58.5258 66.1633 58.6202 66.0688C58.6758 66.002 58.7369 65.9408 58.798 65.8796C58.8314 65.8407 58.8647 65.8073 58.898 65.7739C58.9925 65.6793 59.0925 65.5848 59.187 65.4846L59.1925 65.4791C59.2425 65.4345 59.2926 65.3845 59.3481 65.3344C59.4037 65.2843 59.4592 65.2287 59.5148 65.1786C59.6759 65.0284 59.8426 64.8782 60.0093 64.7447C60.1482 64.6167 60.2927 64.4999 60.4372 64.3886C60.5427 64.2941 60.6539 64.2106 60.765 64.1272C60.8039 64.0938 60.8484 64.066 60.8872 64.0326C61.0039 63.9436 61.1206 63.8546 61.2429 63.7711C61.2706 63.7489 61.304 63.7266 61.3373 63.7043C61.4262 63.6431 61.5151 63.5819 61.604 63.5208C61.7207 63.4484 61.8318 63.3705 61.9485 63.2927C61.9596 63.2815 61.9763 63.276 61.9874 63.2648C62.1152 63.1814 62.2486 63.1035 62.3819 63.0201C62.4708 62.9644 62.5653 62.9088 62.6597 62.8587C62.732 62.8142 62.8098 62.7697 62.8876 62.7252C62.9931 62.664 63.0931 62.6084 63.1987 62.5583C63.2932 62.5082 63.3821 62.4581 63.4765 62.4081C63.5654 62.3636 63.6599 62.3135 63.7544 62.269C63.7544 62.2634 63.7655 62.2634 63.7655 62.2634H63.771C63.7821 62.2579 63.7877 62.2523 63.7988 62.2467C63.9044 62.1967 64.0155 62.1466 64.1211 62.0965C64.1266 62.091 64.1322 62.091 64.1378 62.0854C64.1878 62.0632 64.2378 62.0409 64.2878 62.0186C64.4989 61.9241 64.7101 61.8351 64.9268 61.746C65.0601 61.6904 65.2046 61.6348 65.3379 61.5847C65.5935 61.4901 65.8436 61.4011 66.0992 61.3232C66.2325 61.2732 66.3659 61.2342 66.4992 61.1953C66.7604 61.1174 67.0215 61.0451 67.2883 60.9783H67.3105C67.3827 60.9616 67.4494 60.9449 67.5216 60.9282C67.6216 60.9004 67.7216 60.8782 67.8217 60.8559C67.8828 60.8448 67.9495 60.8336 68.0106 60.817C68.1217 60.8003 68.2273 60.778 68.3384 60.7558C68.5162 60.7224 68.6885 60.6946 68.8607 60.6668C68.9552 60.6501 69.0441 60.6389 69.133 60.6278C69.2163 60.6167 69.3052 60.6056 69.3886 60.5944H69.3997C69.4275 60.5889 69.4553 60.5889 69.483 60.5889C69.6942 60.5611 69.9164 60.5388 70.1387 60.5221C70.172 60.5165 70.2109 60.5165 70.2498 60.511H70.2554C70.3109 60.5054 70.361 60.4999 70.4165 60.4999C70.5277 60.4887 70.6443 60.4832 70.761 60.4832C70.9333 60.472 71.1055 60.472 71.2778 60.4665H71.3222C71.4 60.4665 71.4834 60.4665 71.5667 60.472C71.6111 60.472 71.6612 60.472 71.7056 60.472C71.7723 60.472 71.8334 60.472 71.9001 60.472C72.1112 60.4776 72.3168 60.4776 72.5335 60.4887C72.5502 60.4887 72.5669 60.4943 72.5835 60.4943H72.6335C72.7058 60.4999 72.778 60.4999 72.8447 60.511C72.8891 60.511 72.9336 60.5165 72.978 60.5165C73.0169 60.5221 73.0558 60.5277 73.0947 60.5332H73.1114C73.1503 60.5332 73.1892 60.5388 73.2281 60.5444C73.3503 60.5555 73.4781 60.5722 73.6004 60.5833C73.6504 60.5889 73.7004 60.5944 73.7504 60.6C73.8004 60.6056 73.8559 60.6111 73.906 60.6167C73.9337 60.6167 73.9671 60.6222 73.9949 60.6278C74.0226 60.6334 74.056 60.6334 74.0838 60.6389C74.1782 60.6556 74.2727 60.6723 74.3671 60.6834C74.3838 60.6834 74.4005 60.6834 74.4171 60.689C74.5561 60.7113 74.695 60.7335 74.8339 60.7669C74.9394 60.778 75.0339 60.8003 75.1395 60.8225C75.1673 60.8281 75.2062 60.8337 75.2395 60.8448C75.4173 60.8782 75.5896 60.9227 75.7674 60.9616C75.7896 60.9672 75.8174 60.9727 75.8396 60.9783C75.9618 61.0117 76.0896 61.0451 76.2119 61.0784C76.2397 61.084 76.273 61.0951 76.3008 61.1007C76.3508 61.1118 76.3952 61.1229 76.4452 61.1396C76.5397 61.1675 76.6342 61.1953 76.7286 61.2231C76.7842 61.2342 76.8342 61.2565 76.8898 61.2732C76.8953 61.2732 76.9009 61.2732 76.912 61.2787C76.9398 61.2898 76.9731 61.2954 77.0064 61.3065C77.0731 61.3288 77.1398 61.351 77.2065 61.3733C77.2954 61.4011 77.3898 61.4345 77.4732 61.4623C77.5065 61.4734 77.5454 61.4846 77.5788 61.5013C77.6843 61.5402 77.7843 61.5736 77.8843 61.6181C77.9232 61.6292 77.9566 61.6403 77.9955 61.657C78.0455 61.6737 78.0955 61.696 78.1399 61.7127C78.2233 61.746 78.3066 61.7794 78.3844 61.8128C78.4344 61.8351 78.4789 61.8517 78.5289 61.874C78.7456 61.963 78.9567 62.0576 79.1679 62.1577C79.3679 62.2523 79.568 62.3525 79.7624 62.4582C79.8347 62.4915 79.9013 62.5305 79.9736 62.5694C80.0625 62.6139 80.1514 62.6584 80.2347 62.7085C80.3292 62.7641 80.4292 62.8198 80.5237 62.8754C80.5792 62.9032 80.6292 62.9366 80.6848 62.97C80.7237 62.9922 80.7681 63.0145 80.807 63.0423C80.9571 63.1313 81.1126 63.2259 81.2627 63.3316C81.2904 63.3483 81.3182 63.365 81.346 63.3872C81.4627 63.4596 81.5794 63.5374 81.6905 63.6153C81.8016 63.6932 81.9183 63.7767 82.0294 63.8601C82.1017 63.9102 82.1739 63.9603 82.2461 64.0159C82.3239 64.0715 82.3962 64.1272 82.4684 64.1828C82.5406 64.244 82.6129 64.2996 82.6907 64.3608C82.7296 64.3886 82.7629 64.422 82.7962 64.4498C82.9018 64.5333 83.0074 64.6223 83.1074 64.7057C83.1852 64.7669 83.2519 64.8281 83.3241 64.8949C83.4408 64.995 83.5575 65.1008 83.6686 65.2065C83.7575 65.2899 83.8464 65.3734 83.9297 65.4568C83.9575 65.4791 83.9853 65.5069 84.0131 65.5347C84.1631 65.6793 84.3076 65.8295 84.4576 65.9853C84.5354 66.0632 84.6132 66.1467 84.6799 66.2301C84.7521 66.3024 84.8188 66.3748 84.8855 66.4526C84.9466 66.5194 85.0077 66.5862 85.0633 66.6585C85.1299 66.7252 85.1911 66.7976 85.2466 66.8699C85.33 66.97 85.4189 67.0702 85.4911 67.1759C85.5467 67.2371 85.5967 67.3038 85.6467 67.365C85.7634 67.5208 85.8856 67.6766 85.9967 67.8324C86.0523 67.9102 86.1079 67.9881 86.1634 68.0716C86.219 68.1439 86.269 68.2218 86.319 68.2941C86.4024 68.4109 86.4746 68.5278 86.5468 68.6446C86.5857 68.7002 86.6246 68.7614 86.6635 68.8226C86.708 68.895 86.758 68.9728 86.8024 69.0452C86.8469 69.1175 86.8913 69.1954 86.9358 69.2677C86.9524 69.2955 86.9691 69.3233 86.9802 69.3512C86.9913 69.3678 87.0025 69.3845 87.008 69.3957C87.0525 69.4736 87.0969 69.5514 87.1358 69.6238C87.1803 69.7016 87.2247 69.7795 87.2636 69.8574C87.3025 69.9297 87.3414 70.0021 87.3803 70.08C87.3858 70.0855 87.3858 70.0911 87.3914 70.0966C87.4303 70.1745 87.4747 70.258 87.5136 70.3414C87.5303 70.3748 87.547 70.4138 87.5692 70.4471C87.6192 70.5473 87.6692 70.653 87.7137 70.7587C87.7415 70.8143 87.7692 70.8755 87.797 70.9367V70.9423C87.8915 71.1481 87.9804 71.3595 88.0637 71.5709C88.0971 71.6433 88.1249 71.7156 88.1526 71.7879C88.2138 71.9325 88.2693 72.0772 88.3193 72.2218C88.3415 72.2719 88.3582 72.3276 88.3749 72.3776C88.4082 72.4722 88.436 72.5668 88.4693 72.6614C88.4805 72.6892 88.4916 72.7226 88.4971 72.7504C88.5583 72.9395 88.6194 73.1287 88.6749 73.3178C88.7416 73.5404 88.8027 73.7685 88.8583 73.991V74.0077C88.925 74.2692 88.9861 74.5362 89.0361 74.8088C89.0806 75.0147 89.1194 75.2261 89.1472 75.4375C89.1583 75.4987 89.1695 75.5654 89.1806 75.6266C89.1806 75.6489 89.1861 75.6711 89.1917 75.6934C89.2028 75.8102 89.2195 75.927 89.2361 76.0383C89.2361 76.0606 89.2417 76.0773 89.2417 76.0884C89.2528 76.1941 89.2695 76.2998 89.2806 76.4111C89.2973 76.5668 89.3084 76.7226 89.3195 76.8784C89.3306 77.0175 89.3417 77.1565 89.3473 77.2956C89.3473 77.329 89.3528 77.3624 89.3528 77.3902C89.3584 77.4848 89.3639 77.5738 89.3639 77.6628C89.3695 77.8575 89.375 78.0522 89.375 78.2525C89.375 78.5808 89.3639 78.909 89.3473 79.2372C89.3361 79.4208 89.325 79.6044 89.3084 79.7825C89.3028 79.8993 89.2917 80.0105 89.2806 80.1218C89.2695 80.2609 89.2472 80.4 89.2306 80.5391C89.2195 80.6281 89.2084 80.7227 89.1917 80.8172C89.1917 80.8451 89.1861 80.8673 89.1806 80.8951C89.175 80.9563 89.1639 81.0119 89.1528 81.0731C89.1472 81.1288 89.1361 81.19 89.125 81.2456C89.1194 81.279 89.1139 81.3124 89.1083 81.3402C89.1083 81.368 89.1028 81.4014 89.0972 81.4348C89.0694 81.5739 89.0417 81.7074 89.0139 81.8465V81.8631C88.9861 81.9967 88.9528 82.1357 88.925 82.2748C88.8972 82.4084 88.8639 82.5419 88.8305 82.681C88.8305 82.681 88.8305 82.6865 88.825 82.6865C88.825 82.6921 88.825 82.6977 88.8194 82.7032V82.7088C88.8194 82.7199 88.8139 82.731 88.8139 82.7422C88.8083 82.7588 88.8027 82.7755 88.7972 82.7978C88.7749 82.9035 88.7472 83.0036 88.7138 83.1038C88.6916 83.1817 88.6694 83.254 88.6472 83.3319C88.636 83.3764 88.6194 83.4209 88.6083 83.4654C88.5971 83.5099 88.5805 83.5544 88.5638 83.5933C88.536 83.7046 88.5027 83.8159 88.4638 83.9216C88.4582 83.9438 88.4527 83.9605 88.4416 83.9828C88.4027 84.0941 88.3693 84.2109 88.3249 84.3221C88.3138 84.3555 88.3027 84.3834 88.2915 84.4167C88.2526 84.5169 88.2193 84.617 88.1749 84.7171C88.136 84.8229 88.0971 84.9341 88.0526 85.0398C88.0415 85.0621 88.0304 85.0843 88.0193 85.1122C88.0137 85.1233 88.0137 85.1344 88.0082 85.1455C88.0082 85.1511 88.0026 85.1511 88.0026 85.1567V85.1622C87.9359 85.3124 87.8693 85.4626 87.797 85.6128V85.6184C87.7915 85.6295 87.7915 85.6295 87.7915 85.6351C87.7803 85.6629 87.7637 85.6907 87.7526 85.713C87.6914 85.8576 87.6248 85.9912 87.5581 86.1247V86.1302C87.5525 86.1414 87.547 86.1469 87.547 86.1581V86.1692C87.5081 86.2471 87.4692 86.325 87.4247 86.4028C87.3136 86.6254 87.1969 86.8424 87.0747 87.0538C87.0525 87.0983 87.0247 87.1372 87.0024 87.1817C86.9302 87.3041 86.858 87.4265 86.7857 87.5433C86.7691 87.5712 86.758 87.599 86.7357 87.6268C86.7191 87.6546 86.6968 87.688 86.6802 87.7214C86.6579 87.7603 86.6302 87.7937 86.6079 87.8326C86.4357 88.1052 86.2579 88.3723 86.0634 88.6337C86.0634 88.6393 86.0579 88.6449 86.0579 88.6449C85.9912 88.7395 85.9245 88.834 85.8523 88.923C85.8134 88.9787 85.7745 89.0288 85.7356 89.0844C85.73 89.09 85.73 89.0955 85.7245 89.0955C85.7189 89.1011 85.7189 89.1066 85.7189 89.1066C85.6689 89.1734 85.6189 89.2346 85.5689 89.2958C85.5022 89.3848 85.43 89.4738 85.3577 89.5628C85.2411 89.7075 85.1133 89.8577 84.9855 90.0023C84.8854 90.1136 84.7854 90.2304 84.6799 90.3417C84.6576 90.3695 84.6299 90.4029 84.6021 90.4307C84.591 90.4418 84.5798 90.453 84.5687 90.4641C84.4465 90.5921 84.3243 90.72 84.202 90.8424C84.0742 90.9704 83.9464 91.0983 83.8131 91.2263C83.7964 91.243 83.7742 91.2597 83.7575 91.2763C83.6297 91.3987 83.5019 91.5156 83.3685 91.6324C83.363 91.638 83.363 91.638 83.3574 91.638C83.2407 91.7492 83.1185 91.8549 82.9963 91.9495C82.8518 92.0775 82.7018 92.1999 82.5462 92.3167C82.474 92.3779 82.3906 92.4391 82.3073 92.5003C82.2128 92.5726 82.1184 92.6449 82.0239 92.7173H82.0128C81.8794 92.8118 81.7461 92.9064 81.6127 93.001C81.346 93.1901 81.0682 93.3682 80.7904 93.5295C80.6515 93.6241 80.5125 93.7075 80.3681 93.7799C80.0514 93.969 79.7291 94.1415 79.3957 94.2973C79.1512 94.4141 78.8956 94.5309 78.64 94.6422C78.6289 94.6477 78.6234 94.6533 78.6178 94.6533H78.6123L78.6067 94.6589C78.5122 94.6978 78.4233 94.7368 78.3289 94.7757C78.2344 94.8146 78.1399 94.8536 78.0399 94.887C78.0344 94.8925 78.0344 94.8925 78.0344 94.8925C77.9288 94.937 77.8232 94.976 77.7177 95.0149C77.6399 95.0427 77.5565 95.0761 77.4732 95.1039C77.4676 95.1095 77.4676 95.1095 77.4621 95.1095H77.451C77.3898 95.1318 77.3343 95.154 77.2731 95.1763C77.1231 95.2263 76.9675 95.2708 76.8175 95.3209C76.8064 95.3209 76.8008 95.3265 76.7897 95.3265C76.623 95.3821 76.4619 95.4322 76.2897 95.4767C76.2508 95.4878 76.2063 95.4989 76.1674 95.5101C76.1563 95.5101 76.1452 95.5156 76.1396 95.5156C76.1119 95.5212 76.0841 95.5268 76.0618 95.5323C76.0563 95.5379 76.0452 95.5379 76.0341 95.5379C75.8451 95.5879 75.6507 95.638 75.4562 95.6825C75.4562 95.6825 75.4506 95.6825 75.4451 95.6825C75.2562 95.727 75.0561 95.766 74.8617 95.8049C74.8339 95.8105 74.8117 95.8161 74.7839 95.8216H74.7672C74.695 95.8327 74.6172 95.8494 74.5394 95.8606C74.3449 95.8939 74.1449 95.9218 73.9448 95.9496C73.7893 95.9718 73.6392 95.9885 73.4781 96.0052C73.467 96.0052 73.4559 96.0052 73.4503 96.0108C73.2003 96.0386 72.9502 96.0608 72.6947 96.072C72.6224 96.0775 72.5502 96.0831 72.4835 96.0831C72.4557 96.0831 72.4279 96.0887 72.4002 96.0887C72.0668 96.1053 71.739 96.1053 71.4056 96.0998C71.3667 96.0998 71.3278 96.0998 71.2889 96.0998H70.9944C70.9222 96.0942 70.8499 96.0942 70.7777 96.0887H70.7499C70.7055 96.0887 70.6666 96.0831 70.6221 96.0831C70.5721 96.0775 70.5165 96.072 70.4665 96.072C70.4165 96.072 70.361 96.0664 70.3165 96.0608C70.2998 96.0608 70.2832 96.0608 70.2665 96.0553C69.9109 96.033 69.5608 95.9996 69.2163 95.9496C69.0274 95.9273 68.8385 95.8995 68.6551 95.8661C68.5218 95.8439 68.3829 95.816 68.2495 95.7938C68.2217 95.7882 68.1995 95.7827 68.1828 95.7771C68.0217 95.7493 67.8661 95.7215 67.7105 95.6825C67.6661 95.6714 67.6272 95.6658 67.5939 95.6547C67.5272 95.6436 67.4661 95.6269 67.4105 95.6158C67.3938 95.6102 67.3772 95.6102 67.3605 95.6046C67.1994 95.5601 67.0327 95.5156 66.8715 95.4711Z" fill="#53389E"/>
<path d="M47.9906 96.4613L51.1522 99.9829C51.5522 100.434 52.2412 100.467 52.6913 100.066L54.8805 98.097C55.3306 97.6964 55.3639 97.0065 54.9639 96.5559L51.8023 93.0343C51.4022 92.5837 50.7132 92.5503 50.2631 92.9509L48.0739 94.9203C47.6294 95.3264 47.5905 96.0163 47.9906 96.4613Z" fill="white"/>
<path d="M54.0693 98.831V98.8254C53.9748 98.653 53.8248 98.4193 53.6303 98.1467C53.2969 97.6905 52.8469 97.1342 52.3523 96.5611C52.2134 96.3998 52.069 96.2329 51.9245 96.0716C51.4022 95.4819 50.8521 94.9033 50.3854 94.4415C50.2242 94.2802 50.0687 94.1355 49.9297 94.0131L49.9242 94.0076C49.7686 93.8629 49.6241 93.7405 49.5019 93.6404H49.4963C49.2741 93.4735 49.1185 93.3956 49.0629 93.4457L48.2406 94.1967L48.235 94.2023L45.5179 96.6724L44.24 97.8352L42.0563 99.8157L41.5118 100.311L33.7217 107.393L33.6661 107.443C32.1047 108.867 31.9714 111.304 33.3772 112.884C33.4883 113.012 33.6105 113.129 33.7328 113.24C35.133 114.458 37.2389 114.486 38.678 113.24C38.7058 113.218 38.728 113.196 38.7502 113.173L42.0563 110.169L43.3676 108.979L44.3122 108.122L46.068 106.525L46.1236 106.475H46.1292L52.3523 100.817L54.1526 99.1759C54.2026 99.1314 54.1637 99.009 54.0693 98.831Z" fill="#53389E"/>
<path d="M85.8911 76.35C85.5855 76.3611 85.3188 76.1441 85.2743 75.8381C83.7741 65.4013 73.4058 64.283 72.9668 64.2441C72.639 64.2107 72.3945 63.9214 72.4278 63.5876C72.4612 63.2594 72.7557 63.0146 73.0779 63.048C73.1946 63.0591 84.8242 64.283 86.4634 75.6657C86.5078 75.9939 86.2856 76.2999 85.9577 76.3444C85.93 76.3444 85.9077 76.35 85.8911 76.35Z" fill="#53389E"/>
<path fill-rule="evenodd" clip-rule="evenodd" d="M73.6974 76.806C73.6974 75.612 72.7279 74.6445 71.5325 74.6445C70.3361 74.6445 69.3667 75.612 69.3667 76.806C69.3667 77.9991 70.3361 78.9666 71.5325 78.9666C72.7279 78.9666 73.6974 77.9991 73.6974 76.806Z" stroke="#53389E" stroke-width="1.5" stroke-linecap="round" stroke-linejoin="round"/>
<path fill-rule="evenodd" clip-rule="evenodd" d="M71.5317 85.8817C70.4937 85.8817 65.0361 81.4718 65.0361 76.8601C65.0361 73.2497 67.9438 70.3223 71.5317 70.3223C75.1196 70.3223 78.0281 73.2497 78.0281 76.8601C78.0281 81.4718 72.5697 85.8817 71.5317 85.8817Z" stroke="#53389E" stroke-width="1.5" stroke-linecap="round" stroke-linejoin="round"/>
<defs>
<filter id="filter0_dd_556_12325" x="104.168" y="46.2041" width="84.0986" height="54.1777" filterUnits="userSpaceOnUse" color-interpolation-filters="sRGB">
<feFlood flood-opacity="0" result="BackgroundImageFix"/>
<feColorMatrix in="SourceAlpha" type="matrix" values="0 0 0 0 0 0 0 0 0 0 0 0 0 0 0 0 0 0 127 0" result="hardAlpha"/>
<feMorphology radius="4" operator="erode" in="SourceAlpha" result="effect1_dropShadow_556_12325"/>
<feOffset dy="20"/>
<feGaussianBlur stdDeviation="12"/>
<feComposite in2="hardAlpha" operator="out"/>
<feColorMatrix type="matrix" values="0 0 0 0 0.121569 0 0 0 0 0.164706 0 0 0 0 0.215686 0 0 0 0.08 0"/>
<feBlend mode="normal" in2="BackgroundImageFix" result="effect1_dropShadow_556_12325"/>
<feColorMatrix in="SourceAlpha" type="matrix" values="0 0 0 0 0 0 0 0 0 0 0 0 0 0 0 0 0 0 127 0" result="hardAlpha"/>
<feMorphology radius="4" operator="erode" in="SourceAlpha" result="effect2_dropShadow_556_12325"/>
<feOffset dy="8"/>
<feGaussianBlur stdDeviation="4"/>
<feComposite in2="hardAlpha" operator="out"/>
<feColorMatrix type="matrix" values="0 0 0 0 0.121569 0 0 0 0 0.164706 0 0 0 0 0.215686 0 0 0 0.03 0"/>
<feBlend mode="normal" in2="effect1_dropShadow_556_12325" result="effect2_dropShadow_556_12325"/>
<feBlend mode="normal" in="SourceGraphic" in2="effect2_dropShadow_556_12325" result="shape"/>
</filter>
</defs>
</svg>
