<svg width="14" height="13" viewBox="0 0 14 13" fill="none" xmlns="http://www.w3.org/2000/svg">
<path fill-rule="evenodd" clip-rule="evenodd" d="M9.23334 0.000106448C9.65401 0.000106448 10.074 0.0594398 10.4733 0.19344C12.934 0.99344 13.8207 3.69344 13.08 6.05344C12.66 7.25944 11.9733 8.36011 11.074 9.25944C9.78668 10.5061 8.37401 11.6128 6.85334 12.5661L6.68668 12.6668L6.51334 12.5594C4.98734 11.6128 3.56668 10.5061 2.26734 9.25277C1.37401 8.35344 0.686678 7.25944 0.260011 6.05344C-0.493322 3.69344 0.393344 0.99344 2.88068 0.17944C3.07401 0.112773 3.27334 0.0661065 3.47334 0.0401064H3.55334C3.74068 0.0127731 3.92668 0.000106448 4.11334 0.000106448H4.18668C4.60668 0.0127731 5.01334 0.0861064 5.40734 0.220106H5.44668C5.47334 0.232773 5.49334 0.246773 5.50668 0.25944C5.65401 0.306773 5.79334 0.360106 5.92668 0.43344L6.18001 0.546773C6.24123 0.579421 6.30994 0.629307 6.36932 0.67242C6.40694 0.699736 6.44082 0.724334 6.46668 0.740106C6.47756 0.746526 6.48862 0.75298 6.49976 0.759488C6.55692 0.792855 6.61647 0.827614 6.66668 0.866106C7.40734 0.300106 8.30668 -0.00656022 9.23334 0.000106448ZM11.0067 4.80011C11.28 4.79277 11.5133 4.57344 11.5333 4.29277V4.21344C11.5533 3.27944 10.9873 2.43344 10.1267 2.10677C9.85334 2.01277 9.55334 2.16011 9.45334 2.44011C9.36001 2.72011 9.50668 3.02677 9.78668 3.12611C10.214 3.28611 10.5 3.70677 10.5 4.17277V4.19344C10.4873 4.34611 10.5333 4.49344 10.6267 4.60677C10.72 4.72011 10.86 4.78611 11.0067 4.80011Z" fill="#F04438"/>
</svg>
